<?xml version="1.0" standalone="no"?>
<!DOCTYPE svg PUBLIC "-//W3C//DTD SVG 20010904//EN"
 "http://www.w3.org/TR/2001/REC-SVG-20010904/DTD/svg10.dtd">
<svg version="1.0" xmlns="http://www.w3.org/2000/svg"
 width="1000.000000pt" height="750.000000pt" viewBox="0 0 1000.000000 750.000000"
 preserveAspectRatio="xMidYMid meet">

<g transform="translate(0.000000,750.000000) scale(0.100000,-0.100000)"
fill="#000000" stroke="none">
<path d="M1707 4532 l-147 -147 37 -38 38 -37 87 87 88 88 0 -218 0 -217 50 0
50 0 0 210 c0 116 3 210 8 210 4 0 43 -36 87 -80 l79 -80 38 37 38 37 -147
148 c-81 81 -150 148 -153 148 -3 0 -72 -66 -153 -148z"/>
<path d="M3216 4408 c-14 -20 -16 -98 -16 -653 0 -555 2 -633 16 -653 19 -28
55 -28 80 -1 18 20 19 46 19 654 0 608 -1 634 -19 654 -25 27 -61 27 -80 -1z"/>
<path d="M4261 4420 c-123 -13 -202 -31 -208 -48 -4 -8 6 -37 22 -65 21 -37
26 -58 22 -86 -7 -55 -89 -251 -249 -601 -145 -315 -208 -460 -208 -478 0 -5
20 -19 45 -31 56 -26 135 -28 162 -3 12 10 43 87 77 192 31 96 61 182 66 190
7 12 40 16 160 19 l150 3 0 -88 c0 -178 32 -279 100 -318 86 -51 334 -3 454
87 18 13 18 15 1 66 -15 46 -20 52 -39 47 -64 -18 -91 -18 -108 1 -34 38 -40
95 -48 503 -9 402 -16 496 -46 569 -15 37 -17 38 -76 45 -74 7 -178 6 -277 -4z
m51 -241 c9 -57 10 -412 2 -473 l-7 -46 -123 0 c-68 0 -124 2 -124 4 0 3 47
123 104 268 57 145 106 271 110 281 10 31 31 13 38 -34z"/>
<path d="M6475 3911 c-22 -10 -61 -37 -86 -59 l-46 -41 -13 51 -13 51 -141 -5
c-162 -6 -236 -21 -236 -48 0 -10 7 -23 16 -31 26 -22 44 -66 44 -111 0 -23
-19 -139 -41 -258 -39 -203 -53 -349 -36 -366 8 -8 274 11 315 22 20 6 22 12
22 74 0 64 19 192 57 383 16 77 22 91 46 105 28 17 29 16 52 -10 13 -16 28
-36 34 -45 9 -16 12 -16 64 0 36 11 74 34 107 64 51 46 52 47 45 92 -20 131
-88 179 -190 132z"/>
<path d="M7050 3920 c-85 -5 -138 -13 -165 -24 -110 -49 -202 -154 -247 -283
-19 -56 -23 -88 -22 -178 0 -132 22 -200 85 -265 63 -64 116 -84 224 -84 132
1 189 25 285 123 78 79 123 154 155 261 9 30 20 61 24 69 6 12 50 28 132 47
l26 6 -29 -149 c-16 -81 -32 -195 -35 -252 l-6 -104 119 7 c65 4 142 11 170
17 l51 10 6 89 c3 49 20 166 37 262 27 149 35 176 56 196 35 31 47 28 78 -19
25 -37 30 -40 59 -33 50 10 99 39 141 82 37 39 38 42 31 88 -24 162 -134 191
-263 70 -55 -51 -62 -54 -62 -27 0 10 -5 33 -11 51 l-12 33 -136 -6 c-137 -5
-241 -21 -241 -37 0 -5 13 -30 30 -57 16 -26 31 -59 32 -73 3 -22 -3 -26 -42
-37 -25 -6 -62 -12 -82 -12 -35 -1 -37 1 -43 37 -20 112 -48 166 -100 188 -36
15 -43 15 -245 4z m26 -204 c1 -102 50 -163 138 -173 47 -6 47 -6 40 -37 -20
-96 -116 -220 -179 -232 -84 -15 -110 27 -109 176 0 113 27 237 65 298 30 51
44 41 45 -32z"/>
<path d="M8505 3921 c-129 -33 -239 -160 -289 -331 -37 -125 -30 -303 14 -391
37 -72 115 -119 198 -119 45 0 147 35 206 71 26 17 49 29 50 27 2 -2 12 -17
24 -35 31 -44 96 -68 164 -59 63 9 190 56 241 92 41 27 42 34 17 98 -9 24 -10
24 -56 10 -25 -7 -50 -11 -55 -8 -24 14 0 237 47 439 37 158 41 145 -46 173
-41 13 -107 26 -146 29 -67 5 -72 4 -79 -16 -8 -26 -11 -26 -70 0 -51 22 -170
34 -220 20z m227 -159 c5 -5 0 -46 -11 -93 -20 -88 -36 -188 -47 -300 -5 -58
-9 -68 -31 -78 -34 -15 -68 -14 -83 4 -19 22 -24 139 -11 225 19 124 41 189
77 227 29 31 38 35 66 29 18 -3 36 -10 40 -14z"/>
<path d="M5130 3909 c-130 -12 -200 -27 -200 -44 0 -8 14 -35 32 -59 40 -58
39 -80 -12 -277 -83 -317 -62 -422 90 -445 60 -10 181 16 261 54 l62 30 36
-38 c47 -50 100 -59 205 -36 71 16 227 84 240 104 3 5 0 27 -8 48 -14 41 -19
43 -91 33 -42 -6 -42 9 -1 223 41 210 66 362 66 397 l0 24 -122 -6 c-114 -6
-193 -20 -210 -35 -4 -4 -12 -50 -18 -102 -7 -52 -29 -180 -51 -284 -21 -104
-39 -190 -39 -191 0 -2 -14 -8 -31 -14 -51 -18 -78 -14 -90 13 -9 20 -3 60 36
218 47 187 65 319 51 372 -6 24 -10 26 -59 25 -28 -1 -95 -6 -147 -10z"/>
<path d="M1810 3630 l0 -160 50 0 50 0 0 160 0 160 -50 0 -50 0 0 -160z"/>
<path d="M1257 3482 l-37 -38 95 -94 95 -95 37 38 38 37 -95 95 -96 95 -37
-38z"/>
<path d="M2330 3420 l-95 -89 36 -36 c45 -45 46 -45 154 64 l79 81 -34 35
c-19 19 -36 35 -39 35 -4 0 -49 -41 -101 -90z"/>
<path d="M1733 3286 c-137 -45 -269 -189 -289 -318 l-7 -38 -299 0 -299 0 3
-52 3 -53 1015 0 1015 0 3 53 3 52 -299 0 -299 0 -7 41 c-10 61 -62 156 -115
209 -25 25 -78 62 -116 81 -63 31 -78 34 -169 36 -65 2 -116 -2 -143 -11z"/>
</g>
</svg>
