<?xml version="1.0" standalone="no"?>
<!DOCTYPE svg PUBLIC "-//W3C//DTD SVG 20010904//EN"
 "http://www.w3.org/TR/2001/REC-SVG-20010904/DTD/svg10.dtd">
<svg version="1.0" xmlns="http://www.w3.org/2000/svg"
 width="254.000000pt" height="261.000000pt" viewBox="0 0 254.000000 261.000000"
 preserveAspectRatio="xMidYMid meet">

<g transform="translate(0.000000,261.000000) scale(0.100000,-0.100000)"
fill="#000000" stroke="none">
<path d="M1137 2132 l-147 -147 37 -38 38 -37 87 87 88 88 0 -218 0 -217 50 0
50 0 0 210 c0 116 3 210 8 210 4 0 43 -36 87 -80 l79 -80 38 37 38 37 -147
148 c-81 81 -150 148 -153 148 -3 0 -72 -66 -153 -148z"/>
<path d="M1240 1230 l0 -160 50 0 50 0 0 160 0 160 -50 0 -50 0 0 -160z"/>
<path d="M687 1082 l-37 -38 95 -94 95 -95 37 38 38 37 -95 95 -96 95 -37 -38z"/>
<path d="M1760 1020 l-95 -89 36 -36 c45 -45 46 -45 154 64 l79 81 -34 35
c-19 19 -36 35 -39 35 -4 0 -49 -41 -101 -90z"/>
<path d="M1163 886 c-137 -45 -269 -189 -289 -318 l-7 -38 -299 0 -299 0 3
-52 3 -53 1015 0 1015 0 3 53 3 52 -299 0 -299 0 -7 41 c-10 61 -62 156 -115
209 -25 25 -78 62 -116 81 -63 31 -78 34 -169 36 -65 2 -116 -2 -143 -11z"/>
</g>
</svg>
